<?xml version="1.0" encoding="UTF-8" standalone="no"?>
<!DOCTYPE svg PUBLIC "-//W3C//DTD SVG 1.1//EN"
 "http://www.w3.org/Graphics/SVG/1.1/DTD/svg11.dtd">
<!-- Generated by graphviz version 2.43.0 (0)
 -->
<!-- Title: Project Pages: 1 -->
<svg width="904pt" height="559pt"
 viewBox="0.00 0.00 904.00 559.00" xmlns="http://www.w3.org/2000/svg" xmlns:xlink="http://www.w3.org/1999/xlink">
<g id="graph0" class="graph" transform="scale(1 1) rotate(0) translate(4 555)">
<title>Project</title>
<polygon fill="white" stroke="transparent" points="-4,4 -4,-555 900,-555 900,4 -4,4"/>
<g id="clust1" class="cluster">
<title>cluster PeripheralBlocks</title>
<polygon fill="none" stroke="black" points="8,-8 8,-543 158,-543 158,-8 8,-8"/>
<text text-anchor="middle" x="83" y="-527.8" font-family="Times,serif" font-size="14.00">Peripheral Blocks</text>
</g>
<g id="clust2" class="cluster">
<title>cluster ArchitectureBlocks</title>
<polygon fill="none" stroke="black" points="178,-157 178,-394 335,-394 335,-157 178,-157"/>
<text text-anchor="middle" x="256.5" y="-378.8" font-family="Times,serif" font-size="14.00">Architecture Blocks</text>
</g>
<g id="clust3" class="cluster">
<title>cluster EnvironmentBlocks</title>
<polygon fill="none" stroke="black" points="355,-157 355,-394 516,-394 516,-157 355,-157"/>
<text text-anchor="middle" x="435.5" y="-378.8" font-family="Times,serif" font-size="14.00">Environment Blocks</text>
</g>
<g id="clust4" class="cluster">
<title>cluster AcceleratorBlocks</title>
<polygon fill="none" stroke="black" points="536,-157 536,-394 685,-394 685,-157 536,-157"/>
<text text-anchor="middle" x="610.5" y="-378.8" font-family="Times,serif" font-size="14.00">Accelerator Blocks</text>
</g>
<g id="clust5" class="cluster">
<title>cluster TargetBlocks</title>
<polygon fill="none" stroke="black" points="705,-8 705,-543 888,-543 888,-8 705,-8"/>
<text text-anchor="middle" x="796.5" y="-527.8" font-family="Times,serif" font-size="14.00">Target Blocks</text>
</g>
<!-- MPSoC_DBG -->
<g id="node1" class="node">
<title>MPSoC_DBG</title>
<polygon fill="none" stroke="black" points="28.5,-131 28.5,-169 137.5,-169 137.5,-131 28.5,-131"/>
<text text-anchor="middle" x="83" y="-153.8" font-family="Times,serif" font-size="14.00">MPSoC_DBG</text>
<text text-anchor="middle" x="83" y="-138.8" font-family="Times,serif" font-size="14.00">Peripheral</text>
</g>
<!-- MPSoC_RISCV -->
<g id="node10" class="node">
<title>MPSoC_RISCV</title>
<polygon fill="none" stroke="black" points="195,-165.5 195,-218.5 317,-218.5 317,-165.5 195,-165.5"/>
<text text-anchor="middle" x="256" y="-203.3" font-family="Times,serif" font-size="14.00">MPSoC_RISCV</text>
<text text-anchor="middle" x="256" y="-188.3" font-family="Times,serif" font-size="14.00">Architecture</text>
<text text-anchor="middle" x="256" y="-173.3" font-family="Times,serif" font-size="14.00">rv64&#45;pvt&#45;gcfdq</text>
</g>
<!-- MPSoC_DBG&#45;&gt;MPSoC_RISCV -->
<g id="edge1" class="edge">
<title>MPSoC_DBG&#45;&gt;MPSoC_RISCV</title>
<path fill="none" stroke="black" d="M137.64,-163.17C152.64,-166.86 169.18,-170.92 184.98,-174.8"/>
<polygon fill="black" stroke="black" points="184.16,-178.2 194.71,-177.19 185.83,-171.41 184.16,-178.2"/>
</g>
<!-- SoC_RISCV -->
<g id="node11" class="node">
<title>SoC_RISCV</title>
<polygon fill="none" stroke="black" points="198,-237.5 198,-290.5 314,-290.5 314,-237.5 198,-237.5"/>
<text text-anchor="middle" x="256" y="-275.3" font-family="Times,serif" font-size="14.00">SoC_RISCV</text>
<text text-anchor="middle" x="256" y="-260.3" font-family="Times,serif" font-size="14.00">Architecture</text>
<text text-anchor="middle" x="256" y="-245.3" font-family="Times,serif" font-size="14.00">rv64&#45;pv&#45;gcfdq</text>
</g>
<!-- MPSoC_DBG&#45;&gt;SoC_RISCV -->
<g id="edge10" class="edge">
<title>MPSoC_DBG&#45;&gt;SoC_RISCV</title>
<path fill="none" stroke="black" d="M137.72,-164.93C145.15,-168.66 152.2,-173.28 158,-179 174.75,-195.52 161.79,-210.96 178,-228 181.38,-231.55 185.18,-234.79 189.24,-237.74"/>
<polygon fill="black" stroke="black" points="187.59,-240.84 197.87,-243.38 191.41,-234.98 187.59,-240.84"/>
</g>
<!-- PU_RISCV -->
<g id="node12" class="node">
<title>PU_RISCV</title>
<polygon fill="none" stroke="black" points="202.5,-309.5 202.5,-362.5 309.5,-362.5 309.5,-309.5 202.5,-309.5"/>
<text text-anchor="middle" x="256" y="-347.3" font-family="Times,serif" font-size="14.00">PU_RISCV</text>
<text text-anchor="middle" x="256" y="-332.3" font-family="Times,serif" font-size="14.00">Architecture</text>
<text text-anchor="middle" x="256" y="-317.3" font-family="Times,serif" font-size="14.00">rv64&#45;p&#45;gcfdq</text>
</g>
<!-- MPSoC_DBG&#45;&gt;PU_RISCV -->
<g id="edge19" class="edge">
<title>MPSoC_DBG&#45;&gt;PU_RISCV</title>
<path fill="none" stroke="black" d="M137.81,-163.27C145.5,-167.22 152.62,-172.35 158,-179 192.3,-221.36 145.07,-256.56 178,-300 182.25,-305.61 187.59,-310.38 193.47,-314.43"/>
<polygon fill="black" stroke="black" points="192.04,-317.65 202.4,-319.85 195.67,-311.67 192.04,-317.65"/>
</g>
<!-- MPSoC_DMA -->
<g id="node2" class="node">
<title>MPSoC_DMA</title>
<polygon fill="none" stroke="black" points="27.5,-74 27.5,-112 138.5,-112 138.5,-74 27.5,-74"/>
<text text-anchor="middle" x="83" y="-96.8" font-family="Times,serif" font-size="14.00">MPSoC_DMA</text>
<text text-anchor="middle" x="83" y="-81.8" font-family="Times,serif" font-size="14.00">Peripheral</text>
</g>
<!-- MPSoC_DMA&#45;&gt;MPSoC_RISCV -->
<g id="edge2" class="edge">
<title>MPSoC_DMA&#45;&gt;MPSoC_RISCV</title>
<path fill="none" stroke="black" d="M137.29,-112.01C144.38,-115.08 151.46,-118.43 158,-122 177.43,-132.6 197.49,-146.5 214.29,-159.12"/>
<polygon fill="black" stroke="black" points="212.18,-161.92 222.26,-165.19 216.43,-156.35 212.18,-161.92"/>
</g>
<!-- MPSoC_DMA&#45;&gt;SoC_RISCV -->
<g id="edge11" class="edge">
<title>MPSoC_DMA&#45;&gt;SoC_RISCV</title>
<path fill="none" stroke="black" d="M138.79,-106.95C146.08,-110.81 152.81,-115.73 158,-122 188.59,-158.92 148.61,-190.13 178,-228 181.25,-232.19 185.11,-235.92 189.34,-239.22"/>
<polygon fill="black" stroke="black" points="187.64,-242.3 197.87,-245.07 191.6,-236.53 187.64,-242.3"/>
</g>
<!-- MPSoC_DMA&#45;&gt;PU_RISCV -->
<g id="edge20" class="edge">
<title>MPSoC_DMA&#45;&gt;PU_RISCV</title>
<path fill="none" stroke="black" d="M138.85,-106.42C146.22,-110.35 152.96,-115.43 158,-122 206.47,-185.15 131.57,-235.33 178,-300 182.26,-305.93 187.75,-310.92 193.84,-315.1"/>
<polygon fill="black" stroke="black" points="192.08,-318.13 202.45,-320.32 195.71,-312.14 192.08,-318.13"/>
</g>
<!-- MPSoC_GPIO -->
<g id="node3" class="node">
<title>MPSoC_GPIO</title>
<polygon fill="none" stroke="black" points="26.5,-473 26.5,-511 139.5,-511 139.5,-473 26.5,-473"/>
<text text-anchor="middle" x="83" y="-495.8" font-family="Times,serif" font-size="14.00">MPSoC_GPIO</text>
<text text-anchor="middle" x="83" y="-480.8" font-family="Times,serif" font-size="14.00">Peripheral</text>
</g>
<!-- MPSoC_GPIO&#45;&gt;MPSoC_RISCV -->
<g id="edge3" class="edge">
<title>MPSoC_GPIO&#45;&gt;MPSoC_RISCV</title>
<path fill="none" stroke="black" d="M139.71,-479.07C146.77,-475.27 153.2,-470.36 158,-464 189.72,-422 147.89,-271.17 178,-228 180.52,-224.39 183.49,-221.14 186.78,-218.2"/>
<polygon fill="black" stroke="black" points="189.17,-220.77 194.97,-211.91 184.91,-215.22 189.17,-220.77"/>
</g>
<!-- MPSoC_GPIO&#45;&gt;SoC_RISCV -->
<g id="edge12" class="edge">
<title>MPSoC_GPIO&#45;&gt;SoC_RISCV</title>
<path fill="none" stroke="black" d="M139.5,-478.91C146.59,-475.13 153.08,-470.27 158,-464 203.32,-406.23 134.89,-359.44 178,-300 181.25,-295.52 185.2,-291.58 189.57,-288.12"/>
<polygon fill="black" stroke="black" points="191.62,-290.96 197.85,-282.39 187.63,-285.2 191.62,-290.96"/>
</g>
<!-- MPSoC_GPIO&#45;&gt;PU_RISCV -->
<g id="edge21" class="edge">
<title>MPSoC_GPIO&#45;&gt;PU_RISCV</title>
<path fill="none" stroke="black" d="M139.57,-474.96C146.08,-471.83 152.39,-468.19 158,-464 191.25,-439.14 218.63,-399.9 235.73,-371.42"/>
<polygon fill="black" stroke="black" points="238.87,-372.98 240.91,-362.58 232.83,-369.44 238.87,-372.98"/>
</g>
<!-- MPSoC_MPI -->
<g id="node4" class="node">
<title>MPSoC_MPI</title>
<polygon fill="none" stroke="black" points="30.5,-416 30.5,-454 135.5,-454 135.5,-416 30.5,-416"/>
<text text-anchor="middle" x="83" y="-438.8" font-family="Times,serif" font-size="14.00">MPSoC_MPI</text>
<text text-anchor="middle" x="83" y="-423.8" font-family="Times,serif" font-size="14.00">Peripheral</text>
</g>
<!-- MPSoC_MPI&#45;&gt;MPSoC_RISCV -->
<g id="edge4" class="edge">
<title>MPSoC_MPI&#45;&gt;MPSoC_RISCV</title>
<path fill="none" stroke="black" d="M135.84,-423.81C144.37,-419.81 152.27,-414.38 158,-407 207.09,-343.77 131.33,-293.04 178,-228 180.52,-224.49 183.46,-221.32 186.71,-218.44"/>
<polygon fill="black" stroke="black" points="188.95,-221.13 194.76,-212.27 184.7,-215.58 188.95,-221.13"/>
</g>
<!-- MPSoC_MPI&#45;&gt;SoC_RISCV -->
<g id="edge13" class="edge">
<title>MPSoC_MPI&#45;&gt;SoC_RISCV</title>
<path fill="none" stroke="black" d="M135.79,-423.29C144.21,-419.34 152.09,-414.06 158,-407 189.05,-369.9 148.37,-338.25 178,-300 181.25,-295.81 185.1,-292.08 189.33,-288.77"/>
<polygon fill="black" stroke="black" points="191.6,-291.46 197.86,-282.92 187.63,-285.69 191.6,-291.46"/>
</g>
<!-- MPSoC_MPI&#45;&gt;PU_RISCV -->
<g id="edge22" class="edge">
<title>MPSoC_MPI&#45;&gt;PU_RISCV</title>
<path fill="none" stroke="black" d="M135.76,-417.47C143.37,-414.31 151,-410.8 158,-407 177.87,-396.23 198.28,-381.87 215.23,-368.88"/>
<polygon fill="black" stroke="black" points="217.51,-371.54 223.25,-362.64 213.21,-366.02 217.51,-371.54"/>
</g>
<!-- MPSoC_MPRAM -->
<g id="node5" class="node">
<title>MPSoC_MPRAM</title>
<polygon fill="none" stroke="black" points="16,-359 16,-397 150,-397 150,-359 16,-359"/>
<text text-anchor="middle" x="83" y="-381.8" font-family="Times,serif" font-size="14.00">MPSoC_MPRAM</text>
<text text-anchor="middle" x="83" y="-366.8" font-family="Times,serif" font-size="14.00">Peripheral</text>
</g>
<!-- MPSoC_MPRAM&#45;&gt;MPSoC_RISCV -->
<g id="edge5" class="edge">
<title>MPSoC_MPRAM&#45;&gt;MPSoC_RISCV</title>
<path fill="none" stroke="black" d="M148.76,-358.77C152.17,-356.2 155.3,-353.3 158,-350 192.8,-307.48 144.84,-271.81 178,-228 180.48,-224.72 183.34,-221.72 186.46,-218.99"/>
<polygon fill="black" stroke="black" points="188.85,-221.58 194.69,-212.74 184.61,-216 188.85,-221.58"/>
</g>
<!-- MPSoC_MPRAM&#45;&gt;SoC_RISCV -->
<g id="edge14" class="edge">
<title>MPSoC_MPRAM&#45;&gt;SoC_RISCV</title>
<path fill="none" stroke="black" d="M146.56,-358.96C150.69,-356.34 154.57,-353.37 158,-350 175.08,-333.24 161.56,-317.4 178,-300 181.37,-296.43 185.16,-293.19 189.21,-290.23"/>
<polygon fill="black" stroke="black" points="191.39,-292.99 197.83,-284.59 187.55,-287.14 191.39,-292.99"/>
</g>
<!-- MPSoC_MPRAM&#45;&gt;PU_RISCV -->
<g id="edge23" class="edge">
<title>MPSoC_MPRAM&#45;&gt;PU_RISCV</title>
<path fill="none" stroke="black" d="M150.11,-361.76C164.03,-358.34 178.67,-354.75 192.45,-351.36"/>
<polygon fill="black" stroke="black" points="193.43,-354.73 202.31,-348.94 191.76,-347.93 193.43,-354.73"/>
</g>
<!-- MPSoC_MSI -->
<g id="node6" class="node">
<title>MPSoC_MSI</title>
<polygon fill="none" stroke="black" points="30.5,-302 30.5,-340 135.5,-340 135.5,-302 30.5,-302"/>
<text text-anchor="middle" x="83" y="-324.8" font-family="Times,serif" font-size="14.00">MPSoC_MSI</text>
<text text-anchor="middle" x="83" y="-309.8" font-family="Times,serif" font-size="14.00">Peripheral</text>
</g>
<!-- MPSoC_MSI&#45;&gt;MPSoC_RISCV -->
<g id="edge6" class="edge">
<title>MPSoC_MSI&#45;&gt;MPSoC_RISCV</title>
<path fill="none" stroke="black" d="M135.53,-308.55C143.87,-304.67 151.8,-299.61 158,-293 178.69,-270.96 158.16,-250.8 178,-228 180.6,-225.02 183.49,-222.26 186.6,-219.72"/>
<polygon fill="black" stroke="black" points="188.66,-222.55 194.69,-213.85 184.54,-216.89 188.66,-222.55"/>
</g>
<!-- MPSoC_MSI&#45;&gt;SoC_RISCV -->
<g id="edge15" class="edge">
<title>MPSoC_MSI&#45;&gt;SoC_RISCV</title>
<path fill="none" stroke="black" d="M135.77,-303.74C152.27,-298.24 170.78,-292.07 188.19,-286.27"/>
<polygon fill="black" stroke="black" points="189.36,-289.57 197.74,-283.09 187.14,-282.93 189.36,-289.57"/>
</g>
<!-- MPSoC_MSI&#45;&gt;PU_RISCV -->
<g id="edge24" class="edge">
<title>MPSoC_MSI&#45;&gt;PU_RISCV</title>
<path fill="none" stroke="black" d="M135.77,-325.54C153.52,-327.1 173.58,-328.86 192.11,-330.48"/>
<polygon fill="black" stroke="black" points="191.96,-333.98 202.22,-331.37 192.57,-327.01 191.96,-333.98"/>
</g>
<!-- MPSoC_NoC -->
<g id="node7" class="node">
<title>MPSoC_NoC</title>
<polygon fill="none" stroke="black" points="29.5,-17 29.5,-55 136.5,-55 136.5,-17 29.5,-17"/>
<text text-anchor="middle" x="83" y="-39.8" font-family="Times,serif" font-size="14.00">MPSoC_NoC</text>
<text text-anchor="middle" x="83" y="-24.8" font-family="Times,serif" font-size="14.00">Peripheral</text>
</g>
<!-- MPSoC_NoC&#45;&gt;MPSoC_RISCV -->
<g id="edge7" class="edge">
<title>MPSoC_NoC&#45;&gt;MPSoC_RISCV</title>
<path fill="none" stroke="black" d="M136.88,-51.78C144.33,-55.18 151.62,-59.23 158,-64 191.25,-88.86 218.63,-128.1 235.73,-156.58"/>
<polygon fill="black" stroke="black" points="232.83,-158.56 240.91,-165.42 238.87,-155.02 232.83,-158.56"/>
</g>
<!-- MPSoC_NoC&#45;&gt;SoC_RISCV -->
<g id="edge16" class="edge">
<title>MPSoC_NoC&#45;&gt;SoC_RISCV</title>
<path fill="none" stroke="black" d="M136.53,-47.59C144.78,-51.55 152.4,-56.87 158,-64 203.32,-121.77 134.89,-168.56 178,-228 181.25,-232.48 185.2,-236.42 189.57,-239.88"/>
<polygon fill="black" stroke="black" points="187.63,-242.8 197.85,-245.61 191.62,-237.04 187.63,-242.8"/>
</g>
<!-- MPSoC_SPRAM -->
<g id="node8" class="node">
<title>MPSoC_SPRAM</title>
<polygon fill="none" stroke="black" points="18,-245 18,-283 148,-283 148,-245 18,-245"/>
<text text-anchor="middle" x="83" y="-267.8" font-family="Times,serif" font-size="14.00">MPSoC_SPRAM</text>
<text text-anchor="middle" x="83" y="-252.8" font-family="Times,serif" font-size="14.00">Peripheral</text>
</g>
<!-- MPSoC_SPRAM&#45;&gt;MPSoC_RISCV -->
<g id="edge8" class="edge">
<title>MPSoC_SPRAM&#45;&gt;MPSoC_RISCV</title>
<path fill="none" stroke="black" d="M135.52,-244.99C143.09,-242.06 150.77,-239 158,-236 168,-231.84 178.5,-227.29 188.76,-222.73"/>
<polygon fill="black" stroke="black" points="190.38,-225.84 198.08,-218.56 187.52,-219.45 190.38,-225.84"/>
</g>
<!-- MPSoC_SPRAM&#45;&gt;SoC_RISCV -->
<g id="edge17" class="edge">
<title>MPSoC_SPRAM&#45;&gt;SoC_RISCV</title>
<path fill="none" stroke="black" d="M148.16,-264C161.02,-264 174.57,-264 187.54,-264"/>
<polygon fill="black" stroke="black" points="187.8,-267.5 197.8,-264 187.8,-260.5 187.8,-267.5"/>
</g>
<!-- MPSoC_SPRAM&#45;&gt;PU_RISCV -->
<g id="edge25" class="edge">
<title>MPSoC_SPRAM&#45;&gt;PU_RISCV</title>
<path fill="none" stroke="black" d="M133.48,-283.04C141.69,-286.3 150.1,-289.7 158,-293 169.4,-297.76 181.49,-302.98 193.12,-308.08"/>
<polygon fill="black" stroke="black" points="191.76,-311.31 202.32,-312.15 194.59,-304.91 191.76,-311.31"/>
</g>
<!-- MPSoC_UART -->
<g id="node9" class="node">
<title>MPSoC_UART</title>
<polygon fill="none" stroke="black" points="25,-188 25,-226 141,-226 141,-188 25,-188"/>
<text text-anchor="middle" x="83" y="-210.8" font-family="Times,serif" font-size="14.00">MPSoC_UART</text>
<text text-anchor="middle" x="83" y="-195.8" font-family="Times,serif" font-size="14.00">Peripheral</text>
</g>
<!-- MPSoC_UART&#45;&gt;MPSoC_RISCV -->
<g id="edge9" class="edge">
<title>MPSoC_UART&#45;&gt;MPSoC_RISCV</title>
<path fill="none" stroke="black" d="M141.42,-201.96C155.24,-200.75 170.16,-199.44 184.5,-198.18"/>
<polygon fill="black" stroke="black" points="185.15,-201.64 194.81,-197.28 184.54,-194.67 185.15,-201.64"/>
</g>
<!-- MPSoC_UART&#45;&gt;SoC_RISCV -->
<g id="edge18" class="edge">
<title>MPSoC_UART&#45;&gt;SoC_RISCV</title>
<path fill="none" stroke="black" d="M141.42,-226.14C156.44,-231.15 172.77,-236.59 188.24,-241.75"/>
<polygon fill="black" stroke="black" points="187.14,-245.07 197.74,-244.91 189.36,-238.43 187.14,-245.07"/>
</g>
<!-- MPSoC_UART&#45;&gt;PU_RISCV -->
<g id="edge26" class="edge">
<title>MPSoC_UART&#45;&gt;PU_RISCV</title>
<path fill="none" stroke="black" d="M141.13,-223.1C147.38,-226.6 153.2,-230.85 158,-236 178.32,-257.8 158.39,-277.56 178,-300 182.5,-305.15 187.9,-309.62 193.72,-313.48"/>
<polygon fill="black" stroke="black" points="192.11,-316.59 202.49,-318.71 195.69,-310.58 192.11,-316.59"/>
</g>
<!-- MPSoC_DV -->
<g id="node13" class="node">
<title>MPSoC_DV</title>
<polygon fill="none" stroke="black" points="374,-165.5 374,-218.5 496,-218.5 496,-165.5 374,-165.5"/>
<text text-anchor="middle" x="435" y="-203.3" font-family="Times,serif" font-size="14.00">MPSoC_DV</text>
<text text-anchor="middle" x="435" y="-188.3" font-family="Times,serif" font-size="14.00">Environment</text>
<text text-anchor="middle" x="435" y="-173.3" font-family="Times,serif" font-size="14.00">rv64&#45;pvt&#45;gcfdq</text>
</g>
<!-- MPSoC_RISCV&#45;&gt;MPSoC_DV -->
<g id="edge29" class="edge">
<title>MPSoC_RISCV&#45;&gt;MPSoC_DV</title>
<path fill="none" stroke="black" d="M317.42,-192C332.23,-192 348.21,-192 363.45,-192"/>
<polygon fill="black" stroke="black" points="363.85,-195.5 373.85,-192 363.85,-188.5 363.85,-195.5"/>
</g>
<!-- SoC_DV -->
<g id="node14" class="node">
<title>SoC_DV</title>
<polygon fill="none" stroke="black" points="377,-237.5 377,-290.5 493,-290.5 493,-237.5 377,-237.5"/>
<text text-anchor="middle" x="435" y="-275.3" font-family="Times,serif" font-size="14.00">SoC_DV</text>
<text text-anchor="middle" x="435" y="-260.3" font-family="Times,serif" font-size="14.00">Environment</text>
<text text-anchor="middle" x="435" y="-245.3" font-family="Times,serif" font-size="14.00">rv64&#45;pv&#45;gcfdq</text>
</g>
<!-- SoC_RISCV&#45;&gt;SoC_DV -->
<g id="edge28" class="edge">
<title>SoC_RISCV&#45;&gt;SoC_DV</title>
<path fill="none" stroke="black" d="M314.47,-264C331.17,-264 349.57,-264 366.82,-264"/>
<polygon fill="black" stroke="black" points="366.82,-267.5 376.82,-264 366.82,-260.5 366.82,-267.5"/>
</g>
<!-- PU_DV -->
<g id="node15" class="node">
<title>PU_DV</title>
<polygon fill="none" stroke="black" points="380,-309.5 380,-362.5 490,-362.5 490,-309.5 380,-309.5"/>
<text text-anchor="middle" x="435" y="-347.3" font-family="Times,serif" font-size="14.00">PU_DV</text>
<text text-anchor="middle" x="435" y="-332.3" font-family="Times,serif" font-size="14.00">Environment</text>
<text text-anchor="middle" x="435" y="-317.3" font-family="Times,serif" font-size="14.00">rv64&#45;p&#45;gcfdq</text>
</g>
<!-- PU_RISCV&#45;&gt;PU_DV -->
<g id="edge27" class="edge">
<title>PU_RISCV&#45;&gt;PU_DV</title>
<path fill="none" stroke="black" d="M309.63,-336C328.46,-336 349.9,-336 369.61,-336"/>
<polygon fill="black" stroke="black" points="369.74,-339.5 379.74,-336 369.74,-332.5 369.74,-339.5"/>
</g>
<!-- MPSoC_DNC -->
<g id="node16" class="node">
<title>MPSoC_DNC</title>
<polygon fill="none" stroke="black" points="555,-165.5 555,-218.5 665,-218.5 665,-165.5 555,-165.5"/>
<text text-anchor="middle" x="610" y="-203.3" font-family="Times,serif" font-size="14.00">MPSoC_DNC</text>
<text text-anchor="middle" x="610" y="-188.3" font-family="Times,serif" font-size="14.00">Accelerator</text>
<text text-anchor="middle" x="610" y="-173.3" font-family="Times,serif" font-size="14.00">rv64&#45;pvt&#45;cnn</text>
</g>
<!-- MPSoC_DV&#45;&gt;MPSoC_DNC -->
<g id="edge32" class="edge">
<title>MPSoC_DV&#45;&gt;MPSoC_DNC</title>
<path fill="none" stroke="black" d="M496.02,-192C511.71,-192 528.69,-192 544.6,-192"/>
<polygon fill="black" stroke="black" points="544.87,-195.5 554.87,-192 544.87,-188.5 544.87,-195.5"/>
</g>
<!-- SoC_DNC -->
<g id="node17" class="node">
<title>SoC_DNC</title>
<polygon fill="none" stroke="black" points="559.5,-237.5 559.5,-290.5 660.5,-290.5 660.5,-237.5 559.5,-237.5"/>
<text text-anchor="middle" x="610" y="-275.3" font-family="Times,serif" font-size="14.00">SoC_DNC</text>
<text text-anchor="middle" x="610" y="-260.3" font-family="Times,serif" font-size="14.00">Accelerator</text>
<text text-anchor="middle" x="610" y="-245.3" font-family="Times,serif" font-size="14.00">rv64&#45;pv&#45;cnn</text>
</g>
<!-- SoC_DV&#45;&gt;SoC_DNC -->
<g id="edge31" class="edge">
<title>SoC_DV&#45;&gt;SoC_DNC</title>
<path fill="none" stroke="black" d="M493.13,-264C511.15,-264 531.09,-264 549.29,-264"/>
<polygon fill="black" stroke="black" points="549.48,-267.5 559.48,-264 549.48,-260.5 549.48,-267.5"/>
</g>
<!-- PU_DNC -->
<g id="node18" class="node">
<title>PU_DNC</title>
<polygon fill="none" stroke="black" points="561,-309.5 561,-362.5 659,-362.5 659,-309.5 561,-309.5"/>
<text text-anchor="middle" x="610" y="-347.3" font-family="Times,serif" font-size="14.00">PU_DNC</text>
<text text-anchor="middle" x="610" y="-332.3" font-family="Times,serif" font-size="14.00">Accelerator</text>
<text text-anchor="middle" x="610" y="-317.3" font-family="Times,serif" font-size="14.00">rv64&#45;p&#45;cnn</text>
</g>
<!-- PU_DV&#45;&gt;PU_DNC -->
<g id="edge30" class="edge">
<title>PU_DV&#45;&gt;PU_DNC</title>
<path fill="none" stroke="black" d="M490.26,-336C509.5,-336 531.23,-336 550.78,-336"/>
<polygon fill="black" stroke="black" points="550.78,-339.5 560.78,-336 550.78,-332.5 550.78,-339.5"/>
</g>
<!-- MPSoC_EnergyTech -->
<g id="node19" class="node">
<title>MPSoC_EnergyTech</title>
<polygon fill="none" stroke="black" points="716,-131 716,-169 877,-169 877,-131 716,-131"/>
<text text-anchor="middle" x="796.5" y="-153.8" font-family="Times,serif" font-size="14.00">MPSoC_EnergyTech</text>
<text text-anchor="middle" x="796.5" y="-138.8" font-family="Times,serif" font-size="14.00">Target</text>
</g>
<!-- MPSoC_DNC&#45;&gt;MPSoC_EnergyTech -->
<g id="edge35" class="edge">
<title>MPSoC_DNC&#45;&gt;MPSoC_EnergyTech</title>
<path fill="none" stroke="black" d="M665.36,-179.63C678.1,-176.72 692.02,-173.56 705.85,-170.41"/>
<polygon fill="black" stroke="black" points="706.92,-173.75 715.89,-168.12 705.36,-166.93 706.92,-173.75"/>
</g>
<!-- MPSoC_FinTech -->
<g id="node22" class="node">
<title>MPSoC_FinTech</title>
<polygon fill="none" stroke="black" points="730.5,-17 730.5,-55 862.5,-55 862.5,-17 730.5,-17"/>
<text text-anchor="middle" x="796.5" y="-39.8" font-family="Times,serif" font-size="14.00">MPSoC_FinTech</text>
<text text-anchor="middle" x="796.5" y="-24.8" font-family="Times,serif" font-size="14.00">Target</text>
</g>
<!-- MPSoC_DNC&#45;&gt;MPSoC_FinTech -->
<g id="edge38" class="edge">
<title>MPSoC_DNC&#45;&gt;MPSoC_FinTech</title>
<path fill="none" stroke="black" d="M624,-165.24C639.43,-136.21 667.83,-90.46 705,-64 709.89,-60.52 715.23,-57.46 720.79,-54.77"/>
<polygon fill="black" stroke="black" points="722.55,-57.82 730.31,-50.6 719.74,-51.41 722.55,-57.82"/>
</g>
<!-- MPSoC_DefenseTech -->
<g id="node25" class="node">
<title>MPSoC_DefenseTech</title>
<polygon fill="none" stroke="black" points="713,-74 713,-112 880,-112 880,-74 713,-74"/>
<text text-anchor="middle" x="796.5" y="-96.8" font-family="Times,serif" font-size="14.00">MPSoC_DefenseTech</text>
<text text-anchor="middle" x="796.5" y="-81.8" font-family="Times,serif" font-size="14.00">Target</text>
</g>
<!-- MPSoC_DNC&#45;&gt;MPSoC_DefenseTech -->
<g id="edge41" class="edge">
<title>MPSoC_DNC&#45;&gt;MPSoC_DefenseTech</title>
<path fill="none" stroke="black" d="M641.46,-165.25C659.07,-150.87 682.2,-133.73 705,-122 709.18,-119.85 713.55,-117.82 718.02,-115.91"/>
<polygon fill="black" stroke="black" points="719.34,-119.15 727.3,-112.15 716.72,-112.66 719.34,-119.15"/>
</g>
<!-- SoC_EnergyTech -->
<g id="node20" class="node">
<title>SoC_EnergyTech</title>
<polygon fill="none" stroke="black" points="728,-245 728,-283 865,-283 865,-245 728,-245"/>
<text text-anchor="middle" x="796.5" y="-267.8" font-family="Times,serif" font-size="14.00">SoC_EnergyTech</text>
<text text-anchor="middle" x="796.5" y="-252.8" font-family="Times,serif" font-size="14.00">Target</text>
</g>
<!-- SoC_DNC&#45;&gt;SoC_EnergyTech -->
<g id="edge34" class="edge">
<title>SoC_DNC&#45;&gt;SoC_EnergyTech</title>
<path fill="none" stroke="black" d="M660.93,-264C678.39,-264 698.43,-264 717.62,-264"/>
<polygon fill="black" stroke="black" points="717.86,-267.5 727.86,-264 717.86,-260.5 717.86,-267.5"/>
</g>
<!-- SoC_FinTech -->
<g id="node23" class="node">
<title>SoC_FinTech</title>
<polygon fill="none" stroke="black" points="742.5,-188 742.5,-226 850.5,-226 850.5,-188 742.5,-188"/>
<text text-anchor="middle" x="796.5" y="-210.8" font-family="Times,serif" font-size="14.00">SoC_FinTech</text>
<text text-anchor="middle" x="796.5" y="-195.8" font-family="Times,serif" font-size="14.00">Target</text>
</g>
<!-- SoC_DNC&#45;&gt;SoC_FinTech -->
<g id="edge37" class="edge">
<title>SoC_DNC&#45;&gt;SoC_FinTech</title>
<path fill="none" stroke="black" d="M660.93,-248.57C682.97,-241.77 709.12,-233.69 732.48,-226.47"/>
<polygon fill="black" stroke="black" points="733.78,-229.73 742.3,-223.44 731.71,-223.04 733.78,-229.73"/>
</g>
<!-- SoC_DefenseTech -->
<g id="node26" class="node">
<title>SoC_DefenseTech</title>
<polygon fill="none" stroke="black" points="725,-302 725,-340 868,-340 868,-302 725,-302"/>
<text text-anchor="middle" x="796.5" y="-324.8" font-family="Times,serif" font-size="14.00">SoC_DefenseTech</text>
<text text-anchor="middle" x="796.5" y="-309.8" font-family="Times,serif" font-size="14.00">Target</text>
</g>
<!-- SoC_DNC&#45;&gt;SoC_DefenseTech -->
<g id="edge40" class="edge">
<title>SoC_DNC&#45;&gt;SoC_DefenseTech</title>
<path fill="none" stroke="black" d="M660.93,-279.43C680.36,-285.43 703,-292.42 724.1,-298.94"/>
<polygon fill="black" stroke="black" points="723.08,-302.29 733.67,-301.9 725.14,-295.6 723.08,-302.29"/>
</g>
<!-- PU_EnergyTech -->
<g id="node21" class="node">
<title>PU_EnergyTech</title>
<polygon fill="none" stroke="black" points="732,-473 732,-511 861,-511 861,-473 732,-473"/>
<text text-anchor="middle" x="796.5" y="-495.8" font-family="Times,serif" font-size="14.00">PU_EnergyTech</text>
<text text-anchor="middle" x="796.5" y="-480.8" font-family="Times,serif" font-size="14.00">Target</text>
</g>
<!-- PU_DNC&#45;&gt;PU_EnergyTech -->
<g id="edge33" class="edge">
<title>PU_DNC&#45;&gt;PU_EnergyTech</title>
<path fill="none" stroke="black" d="M624,-362.76C639.43,-391.79 667.83,-437.54 705,-464 710.28,-467.76 716.07,-471.02 722.1,-473.85"/>
<polygon fill="black" stroke="black" points="721.15,-477.25 731.72,-477.96 723.9,-470.81 721.15,-477.25"/>
</g>
<!-- PU_FinTech -->
<g id="node24" class="node">
<title>PU_FinTech</title>
<polygon fill="none" stroke="black" points="746,-416 746,-454 847,-454 847,-416 746,-416"/>
<text text-anchor="middle" x="796.5" y="-438.8" font-family="Times,serif" font-size="14.00">PU_FinTech</text>
<text text-anchor="middle" x="796.5" y="-423.8" font-family="Times,serif" font-size="14.00">Target</text>
</g>
<!-- PU_DNC&#45;&gt;PU_FinTech -->
<g id="edge36" class="edge">
<title>PU_DNC&#45;&gt;PU_FinTech</title>
<path fill="none" stroke="black" d="M640.53,-362.55C658.2,-377.31 681.7,-395.06 705,-407 714.75,-412 725.55,-416.29 736.2,-419.9"/>
<polygon fill="black" stroke="black" points="735.31,-423.29 745.9,-423.03 737.46,-416.63 735.31,-423.29"/>
</g>
<!-- PU_DefenseTech -->
<g id="node27" class="node">
<title>PU_DefenseTech</title>
<polygon fill="none" stroke="black" points="729,-359 729,-397 864,-397 864,-359 729,-359"/>
<text text-anchor="middle" x="796.5" y="-381.8" font-family="Times,serif" font-size="14.00">PU_DefenseTech</text>
<text text-anchor="middle" x="796.5" y="-366.8" font-family="Times,serif" font-size="14.00">Target</text>
</g>
<!-- PU_DNC&#45;&gt;PU_DefenseTech -->
<g id="edge39" class="edge">
<title>PU_DNC&#45;&gt;PU_DefenseTech</title>
<path fill="none" stroke="black" d="M659.48,-347.04C677.73,-351.19 698.97,-356.03 719.16,-360.62"/>
<polygon fill="black" stroke="black" points="718.44,-364.05 728.97,-362.85 720,-357.22 718.44,-364.05"/>
</g>
</g>
</svg>
